P2
# Created by IrfanView
15 15
255
255 255 255 255 255 255 255 255 255 255 255 255 255 255 255 
255 255 255 255 255 255 255 255 255 255 255 255 255 255 255 
255 255 255 255 255 255 255 255 255 255 255 255 255 255 255 
255 255 255 255 255 255 233 218 247 255 255 255 255 255 255 
255 255 255 255 237 86 10 6 23 141 254 255 255 255 255 
255 255 255 254 76 12 12 7 14 20 154 255 255 255 255 
255 255 255 208 13 41 31 11 27 40 49 254 255 255 255 
255 255 255 173 13 56 36 6 16 35 18 247 255 255 255 
255 255 255 204 3 19 9 0 0 3 32 255 255 255 255 
255 255 255 254 64 0 0 0 0 0 149 255 255 255 255 
255 255 255 255 235 72 0 0 12 136 255 255 255 255 255 
255 255 255 255 255 248 220 209 236 253 255 255 255 255 255 
255 255 255 255 255 255 255 255 255 255 255 255 255 255 255 
255 255 255 255 255 255 255 255 255 255 255 255 255 255 255 
255 255 255 255 255 255 255 255 255 255 255 255 255 255 255 
