P2
# Created by IrfanView

60 60
685
685 648 613 578 545 512 481 452 425 400 377 356 337 320 305 289 274 261 250 241 232 221 212 205 200 197 196 196 196 196 196 196 196 197 200 205 212 221 232 241 250 261 274 289 305 320 337 356 377 400 424 445 468 493 520 549 580 613 648 685 
648 613 578 545 512 481 450 421 394 369 346 325 306 289 274 260 245 232 221 212 205 194 185 178 173 170 169 169 169 169 169 169 169 170 173 178 185 194 205 212 221 232 245 260 274 289 306 325 346 369 389 410 433 458 485 514 545 578 613 650 
613 578 545 512 481 450 421 392 365 340 317 296 277 260 245 232 218 205 194 185 178 169 160 153 148 145 144 144 144 144 144 144 144 145 148 153 160 169 178 185 194 205 218 232 245 260 277 296 317 337 356 377 400 425 452 481 512 545 580 617 
578 545 512 481 450 421 392 365 338 313 290 269 250 233 218 205 193 180 169 160 153 146 137 130 125 122 121 121 121 121 121 121 121 122 125 130 137 146 153 160 169 180 193 205 218 233 250 269 289 306 325 346 369 394 421 450 481 514 549 586 
545 512 481 450 421 392 365 338 313 288 265 244 225 208 193 180 169 157 146 137 130 125 116 109 104 101 100 100 100 100 100 100 100 101 104 109 116 125 130 137 146 157 169 180 193 208 225 244 260 277 296 317 340 365 392 421 452 485 520 557 
512 481 450 421 392 365 338 313 288 265 242 221 202 185 170 157 146 136 125 116 109 104 097 090 085 082 081 081 081 081 081 081 081 082 085 090 097 104 109 116 125 136 146 157 170 185 202 218 233 250 269 290 313 338 365 394 425 458 493 530 
481 450 421 392 365 338 313 288 265 242 221 200 181 164 149 136 125 116 106 097 090 085 080 073 068 065 064 064 064 064 064 064 064 065 068 073 080 085 090 097 106 116 125 136 149 164 180 193 208 225 244 265 288 313 340 369 400 433 468 505 
452 421 392 365 338 313 288 265 242 221 200 181 162 145 130 117 106 097 089 080 073 068 065 058 053 050 049 049 049 049 049 049 049 050 053 058 065 068 073 080 089 097 106 117 130 145 157 170 185 202 221 242 265 290 317 346 377 410 445 481 
425 394 365 338 313 288 265 242 221 200 181 162 145 128 113 100 089 080 073 065 058 053 050 045 040 037 036 036 036 036 036 036 036 037 040 045 050 053 058 065 073 080 089 100 113 125 136 149 164 181 200 221 244 269 296 325 356 389 421 452 
400 369 340 313 288 265 242 221 200 181 162 145 128 113 098 085 074 065 058 052 045 040 037 034 029 026 025 025 025 025 025 025 025 026 029 034 037 040 045 052 058 065 074 085 097 106 117 130 145 162 181 202 225 250 277 306 337 365 394 425 
377 346 317 290 265 242 221 200 181 162 145 128 113 098 085 072 061 052 045 040 034 029 026 025 020 017 016 016 016 016 016 016 016 017 020 025 026 029 034 040 045 052 061 072 080 089 100 113 128 145 164 185 208 233 260 288 313 340 369 400 
356 325 296 269 244 221 200 181 162 145 128 113 098 085 072 061 050 041 034 029 025 020 017 016 013 010 009 009 009 009 009 009 009 010 013 016 017 020 025 029 034 041 050 058 065 074 085 098 113 130 149 170 193 218 242 265 290 317 346 377 
337 306 277 250 225 202 181 162 145 128 113 098 085 072 061 050 041 032 025 020 017 013 010 009 008 005 004 004 004 004 004 004 004 005 008 009 010 013 017 020 025 032 040 045 052 061 072 085 100 117 136 157 180 200 221 244 269 296 325 356 
320 289 260 233 208 185 164 145 128 113 098 085 072 061 050 041 032 025 018 013 010 008 005 004 004 002 001 001 001 001 001 001 001 002 004 004 005 008 010 013 018 025 029 034 041 050 061 074 089 106 125 145 162 181 202 225 250 277 306 337 
305 274 245 218 193 170 149 130 113 098 085 072 061 050 041 032 025 018 013 008 005 004 002 001 001 001 000 000 000 000 000 000 000 001 001 001 002 004 005 008 013 017 020 025 032 041 052 065 080 097 113 128 145 164 185 208 233 260 289 320 
289 260 232 205 180 157 136 117 100 085 072 061 050 041 032 025 018 013 008 005 002 001 001 000 000 000 000 000 000 000 000 000 000 000 000 000 001 001 002 005 008 010 013 018 025 034 045 058 072 085 098 113 130 149 170 193 218 245 274 305 
274 245 218 193 169 146 125 106 089 074 061 050 041 032 025 018 013 008 005 002 001 000 000 000 000 000 000 000 000 000 000 000 000 000 000 000 000 000 001 002 004 005 008 013 020 029 040 050 061 072 085 100 117 136 157 180 205 232 261 292 
261 232 205 180 157 136 116 097 080 065 052 041 032 025 018 013 008 005 002 001 000 000 000 000 000 000 000 000 000 000 000 000 000 000 000 000 000 000 000 001 001 002 005 010 017 025 032 041 050 061 074 089 106 125 146 169 194 221 250 281 
250 221 194 169 146 125 106 089 073 058 045 034 025 018 013 008 005 002 001 000 000 000 000 000 000 000 000 000 000 000 000 000 000 000 000 000 000 000 000 000 000 001 004 008 013 018 025 032 041 052 065 080 097 116 137 160 185 212 241 272 
241 212 185 160 137 116 097 080 065 052 040 029 020 013 008 005 002 001 000 000 000 000 000 000 000 000 000 000 000 000 000 000 000 000 000 000 000 000 000 000 000 001 002 005 008 013 018 025 034 045 058 073 090 109 130 153 178 205 232 261 
232 205 178 153 130 109 090 073 058 045 034 025 017 010 005 002 001 000 000 000 000 000 000 000 000 000 000 000 000 000 000 000 000 000 000 000 000 000 000 000 000 000 001 002 005 008 013 020 029 040 053 068 085 104 125 146 169 194 221 250 
221 194 169 146 125 104 085 068 053 040 029 020 013 008 004 001 000 000 000 000 000 000 000 000 000 000 000 000 000 000 000 000 000 000 000 000 000 000 000 000 000 000 000 001 002 005 010 017 026 037 050 065 080 097 116 137 160 185 212 241 
212 185 160 137 116 097 080 065 050 037 026 017 010 005 002 001 000 000 000 000 000 000 000 000 000 000 000 000 000 000 000 000 000 000 000 000 000 000 000 000 000 000 000 000 001 004 009 016 025 034 045 058 073 090 109 130 153 178 205 234 
205 178 153 130 109 090 073 058 045 034 025 016 009 004 001 000 000 000 000 000 000 000 000 000 000 000 000 000 000 000 000 000 000 000 000 000 000 000 000 000 000 000 000 000 001 004 008 013 020 029 040 053 068 085 104 125 148 173 200 229 
200 173 148 125 104 085 068 053 040 029 020 013 008 004 001 000 000 000 000 000 000 000 000 000 000 000 000 000 000 000 000 000 000 000 000 000 000 000 000 000 000 000 000 000 001 002 005 010 017 026 037 050 065 082 101 122 145 170 197 226 
197 170 145 122 101 082 065 050 037 026 017 010 005 002 001 000 000 000 000 000 000 000 000 000 000 000 000 000 000 000 000 000 000 000 000 000 000 000 000 000 000 000 000 000 000 001 004 009 016 025 036 049 064 081 100 121 144 169 196 225 
196 169 144 121 100 081 064 049 036 025 016 009 004 001 000 000 000 000 000 000 000 000 000 000 000 000 000 000 000 000 000 000 000 000 000 000 000 000 000 000 000 000 000 000 000 001 004 009 016 025 036 049 064 081 100 121 144 169 196 225 
196 169 144 121 100 081 064 049 036 025 016 009 004 001 000 000 000 000 000 000 000 000 000 000 000 000 000 000 000 000 000 000 000 000 000 000 000 000 000 000 000 000 000 000 000 001 004 009 016 025 036 049 064 081 100 121 144 169 196 225 
196 169 144 121 100 081 064 049 036 025 016 009 004 001 000 000 000 000 000 000 000 000 000 000 000 000 000 000 000 000 000 000 000 000 000 000 000 000 000 000 000 000 000 000 000 001 004 009 016 025 036 049 064 081 100 121 144 169 196 225 
196 169 144 121 100 081 064 049 036 025 016 009 004 001 000 000 000 000 000 000 000 000 000 000 000 000 000 000 000 000 000 000 000 000 000 000 000 000 000 000 000 000 000 000 000 001 004 009 016 025 036 049 064 081 100 121 144 169 196 225 
196 169 144 121 100 081 064 049 036 025 016 009 004 001 000 000 000 000 000 000 000 000 000 000 000 000 000 000 000 000 000 000 000 000 000 000 000 000 000 000 000 000 000 000 000 001 004 009 016 025 036 049 064 081 100 121 144 169 196 225 
196 169 144 121 100 081 064 049 036 025 016 009 004 001 000 000 000 000 000 000 000 000 000 000 000 000 000 000 000 000 000 000 000 000 000 000 000 000 000 000 000 000 000 000 000 001 004 009 016 025 036 049 064 081 100 121 144 169 196 225 
196 169 144 121 100 081 064 049 036 025 016 009 004 001 000 000 000 000 000 000 000 000 000 000 000 000 000 000 000 000 000 000 000 000 000 000 000 000 000 000 000 000 000 000 000 001 004 009 016 025 036 049 064 081 100 121 144 169 196 225 
196 169 144 121 100 081 064 049 036 025 016 009 004 001 000 000 000 000 000 000 000 000 000 000 000 000 000 000 000 000 000 000 000 000 000 000 000 000 000 000 000 000 000 000 000 001 004 009 016 025 036 049 064 081 100 121 144 169 196 225 
197 170 145 122 101 082 065 050 037 026 017 010 005 002 001 000 000 000 000 000 000 000 000 000 000 000 000 000 000 000 000 000 000 000 000 000 000 000 000 000 000 000 000 000 001 002 005 010 017 026 037 050 065 082 101 122 145 170 197 226 
200 173 148 125 104 085 068 053 040 029 020 013 008 004 001 000 000 000 000 000 000 000 000 000 000 000 000 000 000 000 000 000 000 000 000 000 000 000 000 000 000 000 000 000 001 004 008 013 020 029 040 053 068 085 104 125 148 173 200 229 
205 178 153 130 109 090 073 058 045 034 025 017 010 005 002 001 000 000 000 000 000 000 000 000 000 000 000 000 000 000 000 000 000 000 000 000 000 000 000 000 000 000 000 000 001 004 009 016 025 034 045 058 073 090 109 130 153 178 205 234 
212 185 160 137 116 097 080 065 052 040 029 020 013 008 004 001 000 000 000 000 000 000 000 000 000 000 000 000 000 000 000 000 000 000 000 000 000 000 000 000 000 000 000 001 002 005 010 017 026 037 050 065 080 097 116 137 160 185 212 241 
221 194 169 146 125 106 089 073 058 045 034 025 017 010 005 002 001 000 000 000 000 000 000 000 000 000 000 000 000 000 000 000 000 000 000 000 000 000 000 000 000 000 000 001 004 008 013 020 029 040 053 068 085 104 125 146 169 194 221 250 
232 205 180 157 136 116 097 080 065 052 040 029 020 013 008 004 001 000 000 000 000 000 000 000 000 000 000 000 000 000 000 000 000 000 000 000 000 000 000 000 000 000 001 002 005 010 017 025 034 045 058 073 090 109 130 153 178 205 232 261 
245 218 193 169 146 125 106 089 073 058 045 034 025 017 010 005 002 001 000 000 000 000 000 000 000 000 000 000 000 000 000 000 000 000 000 000 000 000 000 000 000 001 002 005 008 013 020 029 040 052 065 080 097 116 137 160 185 212 241 272 
260 232 205 180 157 136 116 097 080 065 052 040 029 020 013 008 005 002 001 000 000 000 000 000 000 000 000 000 000 000 000 000 000 000 000 000 000 000 000 000 001 002 005 008 013 018 025 034 045 058 073 089 106 125 146 169 194 221 250 281 
274 245 218 193 169 146 125 106 089 073 058 045 034 025 017 010 005 002 001 001 000 000 000 000 000 000 000 000 000 000 000 000 000 000 000 000 000 000 000 001 002 005 008 013 018 025 032 041 052 065 080 097 116 136 157 180 205 232 261 292 
289 260 232 205 180 157 136 116 097 080 064 049 036 025 016 009 004 001 000 000 000 000 000 000 000 000 000 000 000 000 000 000 000 000 000 000 000 000 000 000 001 004 009 016 025 032 041 050 061 074 089 106 125 146 169 193 218 245 274 305 
305 274 245 218 193 169 145 122 101 082 065 050 037 026 017 010 005 002 001 000 000 000 000 000 000 000 000 000 000 000 000 000 000 000 000 000 000 000 000 000 001 004 009 016 025 036 049 061 072 085 100 117 136 157 180 205 232 260 289 320 
320 289 260 229 200 173 148 125 104 085 068 053 040 029 020 013 008 005 002 001 001 001 000 000 000 000 000 000 000 000 000 000 000 000 000 000 001 000 001 001 002 005 010 017 026 037 050 065 082 098 113 130 149 170 193 218 245 274 305 337 
333 298 265 234 205 178 153 130 109 090 073 058 045 034 025 018 013 008 005 004 004 002 001 001 001 001 001 001 001 001 001 001 001 001 001 001 002 001 002 004 005 008 013 020 029 040 053 068 085 104 125 145 164 185 208 233 260 289 320 353 
340 305 272 241 212 185 160 137 116 097 080 065 052 041 032 025 018 013 010 009 008 005 004 004 004 004 004 004 004 004 004 004 004 004 004 004 005 004 005 008 010 013 018 025 034 045 058 073 090 109 130 153 178 202 225 250 277 306 337 370 
349 314 281 250 221 194 169 146 125 106 089 074 061 050 041 032 025 020 017 016 013 010 009 009 009 009 009 009 009 009 009 009 009 009 009 009 010 009 010 013 017 020 025 032 041 052 065 080 097 116 137 160 185 212 241 269 296 325 356 389 
360 325 292 261 232 205 180 157 136 117 100 085 072 061 050 041 034 029 026 025 020 017 016 016 016 016 016 016 016 016 016 016 016 016 016 016 017 016 017 020 025 029 034 041 050 061 074 089 106 125 146 169 194 221 250 281 314 346 377 410 
373 338 305 274 245 218 193 170 149 130 113 098 085 072 061 052 045 040 037 034 029 026 025 025 025 025 025 025 025 025 025 025 025 025 025 025 026 025 026 029 034 040 045 052 061 072 085 100 117 136 157 180 205 232 261 292 325 360 397 433 
388 353 320 289 260 233 208 185 164 145 128 113 098 085 074 065 058 053 050 045 040 037 036 036 036 036 036 036 036 036 036 036 036 036 036 036 037 036 037 040 045 052 058 065 074 085 098 113 130 149 170 193 218 245 274 305 338 373 410 449 
405 370 337 306 277 250 225 202 181 162 145 128 113 100 089 080 073 068 065 058 053 050 049 049 049 049 049 049 049 049 049 049 049 049 049 049 050 049 050 053 058 065 073 080 089 100 113 128 145 164 185 208 233 260 289 320 353 388 425 464 
424 389 356 325 296 269 244 221 200 181 162 145 130 117 106 097 090 085 080 073 068 065 064 064 064 064 064 064 064 064 064 064 064 064 064 064 065 064 065 068 073 080 089 097 106 117 130 145 162 181 202 225 250 277 306 337 370 405 442 481 
445 410 377 346 317 290 265 242 221 200 181 164 149 136 125 116 109 104 097 090 085 082 081 081 081 081 081 081 081 081 081 081 081 081 081 081 082 081 082 085 090 097 106 116 125 136 149 164 181 200 221 244 269 296 325 356 389 424 461 500 
468 433 400 369 340 313 288 265 242 221 202 185 170 157 146 137 130 125 116 109 104 101 100 100 100 100 100 100 100 100 100 100 100 100 100 100 101 100 101 104 109 116 125 136 146 157 170 185 202 221 242 265 290 317 346 377 410 445 482 521 
493 458 425 394 365 338 313 288 265 244 225 208 193 180 169 160 153 146 137 130 125 122 121 121 121 121 121 121 121 121 121 121 121 121 121 121 122 121 122 125 130 137 146 157 169 180 193 208 225 244 265 288 313 340 369 400 433 468 505 544 
520 485 452 421 392 365 338 313 290 269 250 233 218 205 194 185 178 169 160 153 148 145 144 144 144 144 144 144 144 144 144 144 144 144 144 144 145 144 145 148 153 160 169 180 193 205 218 233 250 269 290 313 338 365 394 425 458 493 530 569 
549 514 481 450 421 392 365 340 317 296 277 260 245 232 221 212 205 194 185 178 173 170 169 169 169 169 169 169 169 169 169 169 169 169 169 169 170 169 170 173 178 185 194 205 218 232 245 260 277 296 317 340 365 392 421 452 485 520 557 596 
580 545 512 481 450 421 394 369 346 325 306 289 274 261 250 241 232 221 212 205 200 197 196 196 196 196 196 196 196 196 196 196 196 196 196 196 197 196 197 200 205 212 221 232 245 260 274 289 306 325 346 369 394 421 450 481 514 549 586 625 
