P2
# Created by IrfanView
30 30
255
255 255 255 255 255 255 255 255 255 255 255 255 255 255 255 255 255 
255 255 255 255 255 255 255 255 255 255 255 255 255 255 255 255 255 255 255 255 255 255 255 255 255 255 255 255 255 255 
255 255 255 255 255 255 255 255 255 255 255 255 255 255 255 255 255 255 255 255 255 255 255 255 255 255 255 255 255 255 
255 255 255 255 255 255 255 255 255 255 255 255 255 255 255 255 255 255 255 255 255 255 255 255 255 255 255 255 255 255 
255 255 255 255 255 255 255 255 255 255 255 255 255 255 255 255 255 255 255 255 255 255 255 255 255 255 255 255 255 255 
255 255 255 255 255 255 255 255 255 255 255 255 255 255 255 255 255 255 255 255 255 255 255 255 255 255 255 255 255 255 
255 255 255 255 255 255 255 255 255 255 255 255 255 255 255 255 255 255 255 255 255 255 255 255 255 255 255 255 255 255 
255 255 255 255 255 255 255 255 255 255 255 255 255 255 255 255 255 255 255 255 255 255 255 255 252 202 149 129 140 178 
235 255 255 255 255 255 255 255 255 255 255 255 255 255 255 255 255 255 255 255 255 255 255 195 62 13 6 4 5 8 
26 119 240 255 255 255 255 255 255 255 255 255 255 255 255 255 255 255 255 255 255 255 162 20 7 6 5 4 2 4 
5 9 56 227 255 255 255 255 255 255 255 255 255 255 255 255 255 255 255 255 255 196 20 9 11 11 9 7 7 9 
13 16 15 66 247 255 255 255 255 255 255 255 255 255 255 255 255 255 255 255 251 62 8 13 21 20 15 9 8 13 
24 31 26 22 149 255 255 255 255 255 255 255 255 255 255 255 255 255 255 255 195 14 11 28 40 35 21 11 10 17 
33 41 38 26 53 253 255 255 255 255 255 255 255 255 255 255 255 255 255 255 136 7 16 45 59 50 30 12 11 19 
34 46 43 30 21 221 255 255 255 255 255 255 255 255 255 255 255 255 255 255 105 7 20 51 65 53 31 12 6 12 
26 40 42 26 15 198 255 255 255 255 255 255 255 255 255 255 255 255 255 255 106 5 16 44 55 43 23 6 1 2 
12 24 27 13 9 202 255 255 255 255 255 255 255 255 255 255 255 255 255 255 140 2 5 24 35 26 8 1 0 0 
0 3 4 1 8 236 255 255 255 255 255 255 255 255 255 255 255 255 255 255 209 5 0 3 6 3 0 0 0 0 
0 0 0 0 63 255 255 255 255 255 255 255 255 255 255 255 255 255 255 255 255 76 0 0 0 0 0 0 0 0 
0 0 0 1 182 255 255 255 255 255 255 255 255 255 255 255 255 255 255 255 255 223 21 0 0 0 0 0 0 0 
0 0 0 102 255 255 255 255 255 255 255 255 255 255 255 255 255 255 255 255 255 255 205 28 0 0 0 0 0 0 
0 0 100 251 255 255 255 255 255 255 255 255 255 255 255 255 255 255 255 255 255 255 253 227 92 8 0 0 0 3 
48 169 252 255 255 255 255 255 255 255 255 255 255 255 255 255 255 255 255 255 255 255 254 249 239 217 186 175 182 210 
235 247 253 255 255 255 255 255 255 255 255 255 255 255 255 255 255 255 255 255 255 255 255 255 255 255 255 255 255 255 
255 255 255 255 255 255 255 255 255 255 255 255 255 255 255 255 255 255 255 255 255 255 255 255 255 255 255 255 255 255 
255 255 255 255 255 255 255 255 255 255 255 255 255 255 255 255 255 255 255 255 255 255 255 255 255 255 255 255 255 255 
255 255 255 255 255 255 255 255 255 255 255 255 255 255 255 255 255 255 255 255 255 255 255 255 255 255 255 255 255 255 
255 255 255 255 255 255 255 255 255 255 255 255 255 255 255 255 255 255 255 255 255 255 255 255 255 255 255 255 255 255 
255 255 255 255 255 255 255 255 255 255 255 255 255 255 255 255 255 255 255 255 255 255 255 255 255 255 255 255 255 255 
255 255 255 255 255 255 255 255 255 255 255 255 255 255 255 255 255 255 255 255 255 255 255 255 255 255 255 255 255 255 
255 255 255 255 255 255 255 255 255 255 255 255 255 