P2
# Created by IrfanView

15 15
34
032 025 020 017 013 010 009 009 009 010 013 017 020 025 032 
025 018 013 010 008 005 004 004 004 005 008 010 013 018 025 
018 013 008 005 004 002 001 001 001 002 004 005 008 013 020 
013 008 005 002 001 001 000 000 000 001 001 002 005 010 017 
010 005 002 001 000 000 000 000 000 000 000 001 004 008 013 
009 004 001 000 000 000 000 000 000 000 000 001 002 005 010 
009 004 001 000 000 000 000 000 000 000 000 000 001 004 009 
009 004 001 000 000 000 000 000 000 000 000 000 001 004 009 
009 004 001 000 000 000 000 000 000 000 000 001 002 005 010 
009 004 001 000 000 000 000 000 000 000 000 001 004 008 013 
010 005 002 001 000 000 000 000 000 000 001 002 005 010 017 
013 008 005 002 001 000 000 000 000 000 001 004 008 013 020 
018 013 008 005 002 001 001 001 001 001 002 005 010 017 025 
025 018 013 008 005 004 004 004 004 004 005 008 013 020 029 
032 025 018 013 010 009 009 009 009 009 010 013 018 025 034 
